<svg width="216" height="216" viewBox="0 0 216 216" fill="none" xmlns="http://www.w3.org/2000/svg">
<path d="M108 113C124.569 113 138 99.5685 138 83C138 66.4315 124.569 53 108 53C91.4315 53 78 66.4315 78 83C78 99.5685 91.4315 113 108 113Z" stroke="#1C274C" stroke-width="16"/>
<path d="M108 208C163.228 208 208 163.228 208 108C208 52.7715 163.228 8 108 8C52.7715 8 8 52.7715 8 108C8 163.228 52.7715 208 108 208Z" stroke="#1C274C" stroke-width="16"/>
<path d="M163.691 186C162.1 159.085 153.247 135 107.999 135C62.7521 135 53.8991 159.085 52.3076 186" stroke="#1C274C" stroke-width="16" stroke-linecap="square"/>
</svg>
