<svg width="800" height="800" viewBox="0 0 800 800" fill="none" xmlns="http://www.w3.org/2000/svg">
<g clip-path="url(#clip0_2069_3496)">
<path d="M514.144 194.553C516.061 192.889 518.315 191.659 520.751 190.946C523.187 190.234 525.748 190.055 528.26 190.422C530.726 190.77 533.082 191.665 535.157 193.044C537.231 194.422 538.97 196.247 540.245 198.386C541.722 201.336 542.562 204.565 542.711 207.861C543.786 220.756 541.294 233.699 535.509 245.275C532.782 251.125 528.826 256.318 523.91 260.5C519.169 264.273 514.404 266.087 506.542 262.112C505.462 267.755 503.925 273.301 501.946 278.695C498.224 288.643 478.735 321.198 453.404 336.713C453.433 344.703 453.863 353.032 456.529 359.633C462.255 373.816 493.194 391.66 495.325 392.592C495.325 392.592 477.791 458.99 394.929 458.99C312.067 458.99 301.165 392.592 301.165 392.592C303.296 391.66 329.375 376.301 335.123 362.119C337.82 355.461 338.23 347.095 338.253 339.09C325.99 332.803 315.169 324.036 306.476 313.344C294.828 299.209 286.584 282.586 282.38 264.759C275.086 267.671 269.642 263.907 265.378 260.507C260.462 256.325 256.506 251.131 253.779 245.281C247.996 233.706 245.506 220.763 246.582 207.867C246.731 204.571 247.571 201.343 249.047 198.392C250.323 196.254 252.062 194.428 254.136 193.05C256.21 191.672 258.567 190.776 261.033 190.429C263.544 190.062 266.105 190.24 268.541 190.953C270.978 191.666 273.231 192.896 275.148 194.559C275.148 194.559 267.185 79.2131 386.049 79.2131C522.671 79.2131 514.144 194.553 514.144 194.553Z" fill="white"/>
<path d="M303.851 397.193C306.919 395.642 309.857 393.845 312.636 391.82C317.921 388.316 322.943 384.43 327.661 380.194C332.419 376.188 336.363 371.305 339.28 365.812C343.202 357.534 343.533 347.992 343.577 338.992C343.608 332.136 332.955 332.127 332.924 338.992C332.987 343.258 332.772 347.524 332.28 351.763C331.866 355.105 330.956 358.367 329.579 361.44C326.846 366.086 323.297 370.199 319.101 373.583C315.075 377.094 310.809 380.321 306.334 383.24C303.84 385.024 301.212 386.613 298.473 387.994C297.261 388.714 296.382 389.883 296.024 391.246C295.667 392.61 295.86 394.06 296.562 395.282C297.298 396.477 298.466 397.343 299.824 397.698C301.181 398.054 302.623 397.873 303.851 397.193Z" fill="#211715"/>
<path d="M448.092 338.925C448.257 347.914 448.758 357.986 453.756 365.781C457.481 371.203 462.032 376.008 467.244 380.021C472.434 384.249 477.865 388.172 483.509 391.771C486.418 393.79 489.467 395.6 492.633 397.189C493.862 397.861 495.302 398.038 496.657 397.682C498.012 397.327 499.18 396.467 499.922 395.278C500.623 394.055 500.816 392.606 500.459 391.242C500.101 389.879 499.222 388.71 498.011 387.989C495.158 386.561 492.406 384.941 489.774 383.14C484.945 380.123 480.283 376.846 475.809 373.323C473.254 371.296 470.804 369.141 468.469 366.864C466.681 365.14 465.034 363.274 463.547 361.284C462.77 360.179 462.084 359.012 461.498 357.795C462.079 359.016 461.081 356.643 461.054 356.546C460.667 355.389 460.34 354.213 460.073 353.023C459.147 348.381 458.705 343.655 458.752 338.921C458.628 332.074 447.972 332.052 448.099 338.921L448.092 338.925Z" fill="#211715"/>
<path d="M628 743C689.5 707.5 689.5 690 676 631C670 595.229 630.81 526 622 489.5C613.19 453 593.082 430.036 584.5 426C559.795 414.066 523.002 398.527 497.682 387.965L473.472 379.016C469.996 398.547 464.061 424.029 457.567 441.725C452.265 456.165 434.878 505.351 423.041 533.463C414.14 554.583 404.093 575.203 392.945 595.229C364.176 529.725 329.295 461.605 320.215 379.495L293.819 388.944L290.793 390.202C265.318 400.785 274.237 396.03 250.5 407.5C242.848 410.968 213.577 429.198 207.5 435C200.788 441.36 191.088 456.478 187.5 465C169.766 511.307 160.414 533.179 141.5 581.257C127.746 610.5 121 652.5 117.5 681.504C117.5 697 138.5 722.376 149 731.4C162 742.573 186.5 756 205.5 756L225.044 731.4C225.044 753.484 223.734 769.797 223.712 794.855H579L586 764L628 743Z" fill="white"/>
<path d="M468.627 365.295C465.69 359.972 461.882 355.178 457.361 351.113C448.792 362.632 429.227 377.016 405.78 386.449C404.105 386.998 402.555 387.874 401.222 389.028C400.66 390.073 401.752 390.992 402.265 391.813C403.397 393.188 404.627 394.48 405.945 395.677C398.576 395.677 393.098 395.706 386.167 395.711C387.5 394.505 388.743 393.202 389.884 391.813C390.399 390.992 391.491 390.073 390.93 389.028C389.596 387.875 388.046 386.998 386.371 386.449C362.922 377.016 343.358 362.632 334.79 351.113C327.062 358.215 324.155 363.852 319.511 372.81C327.402 457.918 363.397 527.952 392.945 595.231C404.093 575.205 414.14 554.586 423.041 533.465C434.878 505.353 452.265 456.167 457.567 441.727C464.448 422.97 470.707 395.458 474.072 375.567C472.007 371.618 470.343 368.302 468.627 365.295Z" fill="white"/>
<path d="M367.392 523.704L367.412 523.419C372.084 485.125 378.51 438.163 378.51 436.822C378.414 434.435 378.028 432.069 377.362 429.775C377.094 428.703 376.825 427.669 376.596 426.597C375.172 420.502 374.264 416.267 372.972 409.567C374.81 407.654 376.625 405.732 378.372 403.814C381.635 400.234 384.247 397.599 386.165 395.717C393.092 395.717 398.567 395.688 405.931 395.677C407.853 397.568 410.481 400.205 413.768 403.814C416.03 406.295 418.405 408.783 420.793 411.251C420.056 414.206 419.639 415.875 419.639 415.875C418.911 418.784 418.107 421.81 417.035 425.103C415.499 429.104 414.569 433.312 414.277 437.588C414.239 439.772 420.491 480.976 426.379 520.419L426.89 524.072C425.558 527.401 424.269 530.542 423.037 533.465C414.135 554.585 404.088 575.205 392.941 595.231C384.418 575.826 375.36 556.192 366.593 536.035C366.977 530.167 367.312 524.951 367.392 523.704Z" fill="#5394CF"/>
<path d="M436.709 428.228C451.211 411.308 463.174 392.368 472.22 372.002C467.815 363.508 464.854 358.002 457.361 351.113C448.791 362.632 429.227 377.016 405.78 386.449C404.105 386.998 402.555 387.874 401.221 389.028C400.66 390.073 401.752 390.992 402.265 391.813C403.072 393.105 407.032 396.417 413.773 403.814C421.427 412.208 430.379 420.667 436.709 428.228Z" fill="white"/>
<path d="M355.443 428.228C340.939 411.309 328.977 392.368 319.931 372.002C324.334 363.508 327.297 358.002 334.801 351.113C343.369 362.632 362.933 377.016 386.382 386.449C388.057 386.998 389.607 387.875 390.941 389.028C391.502 390.073 390.41 390.992 389.896 391.813C389.09 393.105 385.128 396.417 378.388 403.814C370.73 412.208 361.773 420.667 355.443 428.228Z" fill="white"/>
<path d="M510.003 827.441C509.97 807.084 508.765 786.754 508.672 766.406C508.576 744.042 507.977 721.437 511.204 699.244C512.758 688.486 514.926 677.806 516.753 667.088C518.577 656.331 520.333 645.562 522.022 634.779C525.463 612.848 528.659 590.88 531.608 568.876C534.715 545.73 537.548 522.547 540.106 499.327C540.097 497.917 539.533 496.567 538.536 495.57C537.539 494.573 536.189 494.009 534.779 494C533.376 494.032 532.04 494.603 531.048 495.595C530.055 496.587 529.484 497.924 529.452 499.327C524.866 541.645 519.278 583.842 512.689 625.919C509.377 647.326 505.702 668.66 501.969 689.996C498.025 712.537 497.947 735.273 498.011 758.087C498.076 781.218 499.314 804.319 499.343 827.448C499.343 834.302 510.008 834.315 509.997 827.448L510.003 827.441Z" fill="#211715"/>
<path d="M274.103 828.441C274.136 808.084 275.341 787.754 275.434 767.406C275.53 745.042 276.129 722.437 272.902 700.244C271.348 689.486 269.18 678.806 267.353 668.088C265.529 657.331 263.773 646.562 262.084 635.779C258.643 613.848 255.447 591.88 252.498 569.876C249.391 546.73 246.558 523.547 244 500.327C244.009 498.917 244.573 497.567 245.57 496.57C246.567 495.573 247.917 495.009 249.327 495C250.73 495.032 252.066 495.603 253.058 496.595C254.05 497.587 254.622 498.924 254.653 500.327C259.24 542.645 264.828 584.842 271.417 626.919C274.729 648.326 278.404 669.66 282.137 690.996C286.081 713.537 286.159 736.273 286.095 759.087C286.03 782.218 284.792 805.319 284.763 828.448C284.763 835.302 274.098 835.315 274.109 828.448L274.103 828.441Z" fill="#211715"/>
<path d="M450.354 585.703C438.591 597.022 426.659 608.159 414.399 618.917C413.399 619.916 412.838 621.271 412.838 622.684C412.837 624.097 413.399 625.452 414.397 626.451C415.396 627.45 416.751 628.012 418.164 628.012C419.577 628.012 420.932 627.451 421.931 626.452C434.203 615.692 446.139 604.55 457.887 593.236C458.873 592.234 459.422 590.883 459.417 589.478C459.411 588.073 458.85 586.727 457.856 585.733C456.863 584.739 455.517 584.179 454.112 584.173C452.706 584.167 451.356 584.717 450.354 585.703Z" fill="#211715"/>
<path d="M399.967 670.591C400.56 671.124 401.037 671.769 401.612 672.307C401.074 671.595 400.963 671.458 401.279 671.896C401.384 672.042 401.483 672.193 401.579 672.34C401.743 672.597 401.896 672.864 402.04 673.134C402.262 673.561 402.502 674.486 401.987 672.897C402.087 673.21 402.22 673.51 402.318 673.825C402.501 674.43 402.637 675.049 402.724 675.676L402.533 674.26C402.675 675.375 402.675 676.503 402.533 677.618L402.724 676.202C402.636 676.829 402.508 677.451 402.34 678.062C402.269 678.321 402.189 678.578 402.1 678.834C402.016 679.085 401.588 680.137 402.023 679.107C402.458 678.077 402.023 679.067 401.905 679.309C401.787 679.551 401.661 679.771 401.53 679.995C401.399 680.219 401.27 680.406 401.139 680.61C400.587 681.46 402.069 679.54 401.452 680.215C401.23 680.452 400.343 681.655 400.023 681.602C400.058 681.602 401.255 680.738 400.44 681.258C400.307 681.34 400.178 681.431 400.045 681.513C399.746 681.699 399.437 681.875 399.122 682.035C398.982 682.106 398.838 682.17 398.696 682.239C397.946 682.609 399.805 681.83 399.204 682.017C398.902 682.114 398.607 682.239 398.303 682.325C397.576 682.541 396.834 682.704 396.083 682.811L397.499 682.621C396.162 682.797 394.807 682.801 393.469 682.634L394.885 682.825C393.828 682.65 392.788 682.384 391.778 682.03C393.382 682.543 392.652 682.41 392.239 682.208C391.98 682.079 391.724 681.941 391.474 681.793C391.289 681.682 391.114 681.56 390.934 681.442C390.202 680.971 392.071 682.421 391.221 681.664C390.736 681.227 390.274 680.767 389.836 680.283C389.21 679.593 390.597 681.411 389.822 680.252C389.676 680.03 389.534 679.808 389.403 679.571C389.272 679.333 389.165 679.109 389.045 678.881C388.63 678.075 389.534 680.261 389.123 678.981C388.951 678.437 388.824 677.88 388.744 677.316L388.934 678.732C388.814 677.774 388.814 676.805 388.934 675.847L388.744 677.263C388.841 676.587 388.989 675.919 389.187 675.265C389.281 674.952 389.394 674.646 389.503 674.34C389.862 673.325 388.963 675.449 389.449 674.479C389.758 673.849 390.099 673.235 390.47 672.64C390.648 672.36 390.834 672.086 391.027 671.818C391.112 671.675 391.211 671.541 391.323 671.419C391.161 671.559 390.448 672.478 391.03 671.821C391.229 671.599 391.422 671.377 391.64 671.155C391.858 670.933 392.67 670.287 391.862 670.904C391.054 671.521 391.953 670.862 392.173 670.724C392.469 670.536 392.776 670.362 393.096 670.203C393.149 670.176 393.48 669.981 393.527 669.996C393.527 669.996 392.213 670.5 392.921 670.256C393.229 670.149 393.533 670.034 393.846 669.941C394.56 669.729 395.29 669.575 396.028 669.479L394.612 669.668C395.774 669.524 396.95 669.524 398.112 669.668L396.696 669.477C397.19 669.547 397.68 669.645 398.163 669.77C398.365 669.825 398.563 669.883 398.76 669.947C398.958 670.012 399.87 670.38 398.94 669.981C398.052 669.601 398.778 669.918 398.98 670.021C399.182 670.123 399.424 670.243 399.632 670.378C399.841 670.513 400.05 670.649 400.258 670.784C401.006 671.275 399.237 669.947 399.965 670.573C400.987 671.541 402.332 672.094 403.738 672.127C404.794 672.129 405.826 671.818 406.705 671.233C407.583 670.648 408.268 669.815 408.672 668.84C409.076 667.865 409.182 666.792 408.975 665.757C408.769 664.722 408.259 663.772 407.512 663.027C404.486 660.403 400.629 658.936 396.625 658.885C393.091 658.797 389.608 659.751 386.613 661.629C383.564 663.714 381.185 666.639 379.764 670.049C378.343 673.458 377.941 677.207 378.607 680.84C379.603 684.786 382.02 688.225 385.394 690.5C387.463 691.814 389.771 692.705 392.186 693.123C394.601 693.541 397.075 693.477 399.465 692.934C401.855 692.392 404.114 691.381 406.112 689.962C408.109 688.542 409.806 686.741 411.105 684.662C412.735 681.605 413.478 678.152 413.251 674.695C412.893 670.217 410.84 666.044 407.512 663.027C406.51 662.041 405.159 661.492 403.754 661.497C402.349 661.503 401.003 662.064 400.009 663.057C399.016 664.051 398.455 665.397 398.449 666.802C398.443 668.208 398.993 669.558 399.979 670.56L399.967 670.591Z" fill="#211715"/>
<path d="M470.125 366.64C467.719 382.697 464.45 398.613 460.331 414.319C457.059 426.937 452.833 439.15 448.41 451.384C438.569 478.63 428.934 506.048 417.615 532.724C403.41 566.191 385.545 597.643 367.643 629.22C363.386 636.602 359.517 644.201 356.053 651.987C353.089 658.141 350.67 664.543 348.822 671.119C346.203 682.037 345.83 693.614 345.493 704.789C344.685 731.489 345.91 758.196 346.556 784.885C346.612 787.168 346.657 789.452 346.691 791.737C346.787 798.586 357.44 798.617 357.345 791.737C356.994 766.264 355.667 740.82 355.938 715.336C356.006 708.73 356.16 702.121 356.535 695.524C356.697 692.593 356.899 689.663 357.169 686.738C357.286 685.444 357.419 684.151 357.569 682.858C357.651 682.159 357.735 681.46 357.829 680.761C357.695 681.748 357.957 679.919 357.995 679.684C359.973 666.911 365.972 654.615 371.978 643.298C380.35 627.506 389.705 612.225 398.294 596.549C406.826 580.982 414.849 565.148 422.096 548.939C434.736 520.67 445.212 491.455 455.748 462.359C459.707 451.422 463.909 440.537 467.22 429.382C471.988 413.101 475.827 396.561 478.719 379.844C479.329 376.39 479.89 372.929 480.404 369.461C480.733 368.101 480.532 366.666 479.841 365.448C479.15 364.231 478.021 363.323 476.684 362.909C475.322 362.544 473.871 362.73 472.645 363.426C471.419 364.122 470.517 365.273 470.132 366.629L470.125 366.64Z" fill="#211715"/>
<path d="M313.685 366.957C316.427 399.852 322.946 432.322 333.112 463.727C342.877 493.252 354.248 522.223 367.173 550.508C374.026 565.967 381.049 581.359 387.862 596.827C388.582 598.039 389.751 598.92 391.115 599.277C392.479 599.635 393.929 599.441 395.151 598.738C396.344 598 397.208 596.832 397.564 595.475C397.92 594.118 397.74 592.677 397.062 591.449C372.63 535.962 346.079 481.123 332.675 421.636C328.591 403.635 325.805 385.364 324.339 366.964C324.305 365.562 323.733 364.227 322.741 363.235C321.749 362.243 320.414 361.671 319.012 361.637C317.603 361.648 316.254 362.213 315.258 363.21C314.261 364.206 313.696 365.555 313.685 366.964V366.957Z" fill="#211715"/>
<path d="M440.475 431.997C451.397 419.186 460.961 405.277 469.013 390.493C470.957 386.859 472.815 383.181 474.586 379.46C475.681 377.532 476.607 375.514 477.356 373.427C478.082 370.784 476.355 368.402 475.174 366.174C471.586 359.154 466.837 352.792 461.127 347.355C460.542 346.797 459.84 346.377 459.072 346.126C458.304 345.874 457.489 345.797 456.688 345.901C455.886 346.004 455.118 346.285 454.439 346.723C453.759 347.162 453.187 347.746 452.762 348.434C443.829 360.279 428.528 369.741 414.898 376.548C410.459 378.767 405.825 380.459 401.379 382.609C396.736 384.855 394.021 389.225 397.306 394.006C400.766 399.047 405.885 403.106 410.006 407.592C417.563 415.804 425.738 423.47 432.942 432.006C433.947 432.994 435.3 433.548 436.709 433.548C438.118 433.548 439.47 432.994 440.475 432.006C441.451 430.992 441.995 429.64 441.995 428.233C441.995 426.826 441.451 425.474 440.475 424.46C433.701 416.436 426.035 409.223 418.902 401.528C415.837 398.219 412.765 394.932 409.56 391.762C408.697 390.906 407.847 390.036 406.981 389.179C406.637 388.839 405.871 387.716 406.963 389.277C406.832 389.088 406.12 387.869 406.202 388.229V391.061L406.357 390.448L404.988 392.799C404.446 393.434 405.543 392.422 405.949 392.206C406.355 391.991 406.775 391.78 407.196 391.591C408.987 390.781 410.841 390.089 412.645 389.303C415.814 387.923 418.937 386.443 422.013 384.864C427.669 381.969 433.141 378.729 438.398 375.161C447.366 369.379 455.325 362.166 461.96 353.809L453.594 354.886C459.401 360.611 464.149 367.318 467.619 374.697V369.321C458.578 389.172 446.915 407.72 432.942 424.469C431.974 425.486 431.434 426.837 431.434 428.242C431.434 429.646 431.974 430.997 432.942 432.015C433.949 433 435.303 433.55 436.712 433.547C438.121 433.544 439.473 432.987 440.475 431.997Z" fill="#211715"/>
<path d="M359.209 424.462C345.236 407.715 333.572 389.169 324.53 369.321V374.697C328.001 367.318 332.75 360.611 338.557 354.886L330.189 353.809C336.824 362.166 344.784 369.379 353.751 375.161C359.009 378.727 364.481 381.967 370.135 384.864C373.064 386.369 376.034 387.783 379.047 389.106C380.849 389.898 382.682 390.617 384.487 391.403C385.073 391.658 385.636 391.907 386.202 392.208C386.564 392.399 387.805 393.553 387.163 392.801L385.794 390.451L385.949 391.063V388.231C386.031 387.872 385.319 389.09 385.188 389.279C386.298 387.725 385.514 388.835 385.168 389.181C384.305 390.038 383.455 390.908 382.589 391.765C379.386 394.941 376.315 398.228 373.247 401.53C366.116 409.225 358.45 416.439 351.676 424.462C350.707 425.479 350.167 426.83 350.167 428.235C350.167 429.64 350.707 430.991 351.676 432.008C352.681 432.996 354.034 433.549 355.443 433.549C356.851 433.549 358.204 432.996 359.209 432.008C365.546 424.5 372.67 417.706 379.395 410.557C382.516 407.241 385.561 403.863 388.777 400.64C390.331 399.087 392.015 397.593 393.438 395.899C396.481 392.253 397.841 387.399 393.369 384.136C389.707 381.473 384.899 380.181 380.805 378.261C372.341 374.321 364.252 369.622 356.637 364.223C350.175 359.797 344.371 354.481 339.396 348.431C338.971 347.744 338.398 347.159 337.719 346.721C337.04 346.283 336.272 346.002 335.47 345.898C334.669 345.795 333.854 345.872 333.086 346.124C332.318 346.375 331.616 346.795 331.03 347.353C325.321 352.79 320.572 359.152 316.983 366.172C315.905 368.207 314.382 370.322 314.706 372.717C315.281 374.941 316.178 377.069 317.37 379.034C319.21 382.894 321.134 386.713 323.14 390.491C331.193 405.275 340.757 419.184 351.678 431.995C352.683 432.983 354.036 433.537 355.445 433.537C356.854 433.537 358.207 432.983 359.211 431.995C360.182 430.981 360.724 429.632 360.723 428.228C360.723 426.824 360.18 425.475 359.209 424.462Z" fill="#211715"/>
<path d="M301.849 38.1349C311.668 25.7724 328.096 16.08 344.62 11.8874C363.362 6.5756 382.865 4.46262 402.309 5.63732C442.433 9.10637 481.691 27.8943 506.904 59.2954C535.451 94.8493 540.161 150.851 526.016 190.258C521.701 190.159 517.502 191.661 514.228 194.475C511.825 179.986 504.789 158.923 499.642 144.887C498.977 142.455 497.611 140.272 495.716 138.609C493.241 137.043 490.434 136.079 487.519 135.792C469.111 132.685 458.597 130.441 439.8 129.518C419.572 128.523 404.968 138.054 385.545 133.464C374.135 130.767 348.624 117.828 339.924 111.378C337.58 109.667 335.485 108.009 333.53 106.717C331.199 105.163 328.127 103.667 325.662 104.981C325.174 105.259 324.715 105.584 324.29 105.951C322.98 107.016 321.054 108.548 319.833 109.644C292.64 132.727 277.277 165.042 278.231 197.249V197.354L275.124 194.55C273.207 192.887 270.953 191.657 268.517 190.944C266.081 190.231 263.52 190.053 261.008 190.42C259.177 190.695 257.404 191.266 255.757 192.111C246.388 163.231 247.829 121.385 254.345 99.4325L256.099 93.5265C262.87 73.3758 273.997 58.5364 286.901 51.2276L301.849 38.1349Z" fill="#908B8A"/>
<path d="M399.199 507.665C317.27 508.258 235.734 508.733 206.785 508.833C205.691 508.835 204.608 509.054 203.598 509.475C202.588 509.897 201.672 510.514 200.901 511.29C200.13 512.067 199.519 512.988 199.105 514.001C198.691 515.014 198.48 516.098 198.485 517.193C198.651 564.229 200.921 727.011 202.65 786.843C202.713 789.036 203.638 791.116 205.225 792.631C206.812 794.146 208.932 794.974 211.126 794.935C237.29 794.533 318.324 794.782 399.197 795.058C480.073 794.782 561.106 794.533 587.269 794.935C589.462 794.974 591.583 794.146 593.17 792.631C594.757 791.116 595.683 789.036 595.747 786.843C597.475 727.011 599.743 564.229 599.911 517.193C599.916 516.098 599.706 515.014 599.291 514.001C598.877 512.988 598.267 512.067 597.496 511.29C596.725 510.514 595.808 509.897 594.798 509.475C593.789 509.054 592.706 508.835 591.611 508.833C562.664 508.733 481.131 508.258 399.199 507.665Z" fill="white"/>
<path d="M238.006 764.588C277.707 764.341 317.412 764.552 357.105 764.675C405.571 764.824 454.037 764.596 502.502 764.525C521.799 764.496 541.095 764.467 560.392 764.588C566.801 764.627 566.81 754.667 560.392 754.628C520.691 754.381 480.985 754.593 441.293 754.715C392.825 754.865 344.361 754.636 295.894 754.566C276.597 754.537 257.3 754.508 238.004 754.628C231.596 754.667 231.584 764.627 238.006 764.588Z" fill="#211715"/>
<path d="M399.199 502.685C341.943 503.1 284.685 503.46 227.424 503.764L214.267 503.824C210.31 503.841 205.797 503.31 202.063 504.764C196.072 507.098 193.487 512.595 193.512 518.73C193.524 521.535 193.541 524.341 193.562 527.146C193.671 543.3 193.831 559.453 194.041 575.605C194.551 618.657 195.181 661.708 195.929 704.76C196.265 724.018 196.642 743.276 197.06 762.533C197.226 769.865 197.408 777.189 197.606 784.507C197.784 790.914 199.95 796.645 206.414 799.079C210.02 800.436 214.298 799.865 218.081 799.832C270.549 799.361 323.032 799.782 375.502 799.956C435.259 800.164 495.033 799.608 554.798 799.716C563.592 799.732 572.387 799.755 581.181 799.84C585.43 799.88 589.895 800.409 593.786 798.288C599.388 795.232 600.65 789.781 600.811 783.907C601.268 767.441 601.604 750.972 601.924 734.506C602.762 691.348 603.453 648.19 603.998 605.032C604.249 586.048 604.472 567.065 604.669 548.084C604.742 540.851 604.804 533.617 604.855 526.382C604.872 523.623 604.909 520.865 604.901 518.106C605.048 515.034 604.156 512.002 602.37 509.499C600.583 506.995 598.006 505.166 595.054 504.305C591.377 503.297 586.997 503.837 583.204 503.82C578.739 503.801 574.273 503.78 569.806 503.758C558.672 503.704 547.537 503.644 536.4 503.579C506.762 503.409 477.126 503.224 447.493 503.023C431.395 502.914 415.296 502.801 399.199 502.685C392.79 502.639 392.786 512.599 399.201 512.645C455.665 513.059 512.13 513.415 568.596 513.711L581.253 513.771C584.662 513.786 588.215 513.52 591.611 513.813C595.383 514.136 594.931 517.799 594.915 520.674C594.899 523.487 594.881 526.297 594.861 529.107C594.744 545.203 594.582 561.298 594.373 577.394C593.872 619.411 593.257 661.426 592.528 703.44C592.201 722.361 591.834 741.282 591.429 760.203C591.263 767.63 591.082 775.058 590.887 782.486C590.815 785.117 591.46 789.31 587.982 789.935C586.403 790.065 584.815 790.054 583.237 789.901C581.513 789.883 579.788 789.868 578.06 789.854C526.341 789.453 474.614 789.825 422.895 789.997C364.254 790.19 305.611 789.671 246.97 789.752C237.784 789.765 228.599 789.785 219.413 789.862C216.401 790.166 213.368 790.179 210.354 789.901C206.741 789.177 207.557 784.415 207.482 781.658C207.038 765.133 206.702 748.609 206.385 732.082C205.575 689.952 204.906 647.82 204.376 605.685C204.13 587.158 203.91 568.632 203.716 550.107C203.643 542.842 203.579 535.58 203.525 528.32C203.505 525.554 203.487 522.787 203.474 520.021C203.459 516.736 203.486 513.865 207.524 513.817C255.647 513.228 303.799 513.306 351.916 512.987C367.674 512.88 383.434 512.77 399.195 512.657C405.607 512.599 405.621 502.639 399.199 502.685Z" fill="#211715"/>
<path d="M399.199 617.346C393.215 617.402 387.231 617.481 381.247 617.487C379.931 617.506 378.674 618.037 377.743 618.968C376.813 619.898 376.282 621.155 376.263 622.471C376.238 628.75 376.23 635.027 376.238 641.303C376.238 644.99 376.248 648.677 376.282 652.366C376.294 653.69 376.282 655.022 376.336 656.344C376.301 657.085 376.425 657.824 376.697 658.514C376.969 659.204 377.384 659.828 377.915 660.346C378.446 660.864 379.08 661.263 379.776 661.518C380.472 661.773 381.215 661.878 381.954 661.826C392.709 661.826 403.467 661.751 414.223 661.803C416.031 662.07 417.877 661.856 419.574 661.181C422.01 659.755 422.05 657.176 422.083 654.707C422.131 651.254 422.141 647.802 422.147 644.349C422.165 637.058 422.159 629.767 422.129 622.477C422.109 621.163 421.578 619.908 420.648 618.978C419.719 618.048 418.463 617.517 417.149 617.498C411.165 617.498 405.179 617.413 399.195 617.357C397.874 617.357 396.607 617.881 395.673 618.815C394.74 619.749 394.215 621.016 394.215 622.336C394.215 623.657 394.74 624.924 395.673 625.858C396.607 626.791 397.874 627.316 399.195 627.316C405.179 627.372 411.165 627.451 417.149 627.457L412.169 622.477C412.213 633.939 412.377 645.42 412.084 656.877L412.763 654.365L417.062 651.898C415.088 651.717 413.053 651.841 411.076 651.841C407.115 651.841 403.156 651.883 399.195 651.883C395.329 651.883 391.462 651.846 387.596 651.844C385.521 651.844 383.394 651.709 381.33 651.898L385.629 654.365L386.31 656.877C386.025 645.42 386.181 633.939 386.224 622.477L381.245 627.457C387.229 627.457 393.211 627.372 399.195 627.316C400.515 627.316 401.784 626.791 402.718 625.858C403.652 624.924 404.177 623.657 404.177 622.336C404.177 621.016 403.652 619.749 402.718 618.815C401.784 617.881 400.515 617.357 399.195 617.357L399.199 617.346Z" fill="#211715"/>
<path d="M259.801 187.046C254.225 167.115 253.418 145.764 255.206 125.225C256.656 108.579 260.709 91.8197 269.205 77.2843C274.025 68.4788 281.057 61.081 289.606 55.8197C295.543 52.3973 290.183 43.1865 284.228 46.6222C266.388 56.9073 255.637 76.4098 249.942 95.5906C244.849 114.013 242.833 133.15 243.974 152.229C244.378 164.947 246.24 177.576 249.522 189.87C251.367 196.461 261.647 193.66 259.794 187.038L259.801 187.046Z" fill="#211715"/>
<path d="M305.615 41.9014C321.034 22.7917 345.413 15.5362 368.826 12.207C392.554 8.78406 416.757 11.1001 439.405 18.9609C461.404 26.426 481.229 39.1852 497.136 56.115C511.842 72.4805 521.706 92.6146 525.623 114.265C530.453 138.007 529.188 162.586 521.946 185.706C519.83 192.244 530.116 195.045 532.22 188.538C539.103 166.259 540.84 142.708 537.298 119.661C533.969 96.3319 525.273 73.6022 510.389 55.1828C478.715 15.9801 425.512 -4.18605 375.789 0.727871C347.601 3.51332 316.682 11.317 298.082 34.3685C297.121 35.3872 296.586 36.7346 296.586 38.135C296.586 39.5353 297.121 40.8828 298.082 41.9014C299.086 42.8912 300.439 43.446 301.849 43.446C303.259 43.446 304.612 42.8912 305.615 41.9014Z" fill="#211715"/>
<path d="M283.569 197.252C283.288 174.877 290.3 153.02 303.544 134.984C310.226 125.565 318.294 117.21 327.475 110.204C328.487 109.445 327.475 109.811 328.418 109.966C329.586 110.373 330.665 111.003 331.594 111.819C333.954 113.435 336.166 115.26 338.519 116.887C341.731 119.106 345.126 121.059 348.538 122.948C357.075 127.715 365.913 131.926 374.994 135.552C384.275 139.361 394.378 140.727 404.338 139.519C416.063 138.067 427.398 134.367 439.326 134.827C451.105 135.419 462.832 136.787 474.431 138.922L485.058 140.753C487.573 141.183 491.51 141.336 493.223 143.569C494.517 145.773 495.48 148.155 496.082 150.638C497.118 153.544 498.13 156.459 499.118 159.383C503.391 171.277 506.73 183.485 509.106 195.898C509.491 197.254 510.394 198.404 511.62 199.101C512.845 199.797 514.296 199.983 515.658 199.62C517.003 199.217 518.14 198.31 518.833 197.089C519.526 195.868 519.721 194.427 519.378 193.066C517.126 181.228 513.974 169.578 509.949 158.22C508.223 153.026 506.482 147.813 504.505 142.71C503.538 139.7 501.811 136.989 499.491 134.84C496.674 132.684 493.346 131.295 489.832 130.809C477.523 128.497 465.078 126.357 452.611 125.121C445.816 124.267 438.961 123.99 432.119 124.291C425.717 124.882 419.359 125.882 413.085 127.285C402.504 129.407 392.335 130.428 381.954 126.823C372.92 123.517 364.168 119.487 355.782 114.774C351.942 112.694 348.12 110.539 344.496 108.097C339.627 104.819 334.979 99.8299 328.835 99.255C322.639 98.6757 317.543 104.491 313.284 108.322C308.533 112.587 304.115 117.208 300.067 122.145C282.766 143.274 272.221 169.732 272.916 197.252C273.087 204.097 283.742 204.121 283.569 197.252Z" fill="#211715"/>
<path d="M380.145 441.825C391.176 441.825 402.205 441.581 413.233 441.576C414.646 441.576 416.001 441.015 417 440.016C417.999 439.017 418.56 437.662 418.56 436.249C418.56 434.837 417.999 433.482 417 432.483C416.001 431.484 414.646 430.923 413.233 430.923C402.205 430.923 391.176 431.167 380.145 431.171C378.733 431.171 377.378 431.733 376.379 432.731C375.38 433.73 374.819 435.085 374.819 436.498C374.819 437.911 375.38 439.266 376.379 440.265C377.378 441.264 378.733 441.825 380.145 441.825Z" fill="#211715"/>
<path d="M368.362 413.653C369.313 418.457 370.349 423.244 371.469 428.013C372.482 431.01 373.049 434.138 373.154 437.299C372.932 440.591 372.331 443.896 371.904 447.165C369.935 462.219 367.968 477.274 366.003 492.329C364.671 502.687 365.368 496.05 364.092 506.42C364.099 507.83 364.662 509.181 365.66 510.178C366.657 511.176 368.008 511.739 369.419 511.746C370.821 511.713 372.157 511.141 373.149 510.149C374.14 509.158 374.712 507.822 374.746 506.42C376.945 488.409 377.275 487.413 379.626 469.422C381.011 458.848 382.891 448.217 383.767 437.586C383.828 434.276 383.355 430.979 382.367 427.82C380.971 422.187 379.759 416.501 378.632 410.812C378.446 410.138 378.129 409.506 377.699 408.954C377.269 408.403 376.734 407.941 376.126 407.595C375.518 407.25 374.847 407.028 374.153 406.941C373.459 406.855 372.754 406.906 372.08 407.092C371.405 407.278 370.774 407.595 370.222 408.025C369.67 408.455 369.208 408.989 368.863 409.598C368.517 410.206 368.295 410.877 368.209 411.571C368.123 412.265 368.174 412.97 368.36 413.644L368.362 413.653Z" fill="#211715"/>
<path d="M405.305 390.351L385.683 390.393C384.27 390.393 382.915 390.954 381.916 391.953C380.917 392.952 380.356 394.307 380.356 395.72C380.356 397.132 380.917 398.487 381.916 399.486C382.915 400.485 384.27 401.046 385.683 401.046L405.305 401.004C406.718 401.004 408.073 400.443 409.072 399.444C410.071 398.445 410.632 397.09 410.632 395.677C410.632 394.265 410.071 392.91 409.072 391.911C408.073 390.912 406.718 390.351 405.305 390.351Z" fill="#211715"/>
<path d="M429.52 504.003C426.948 486.803 426.376 484.604 423.805 467.404C422.855 461.012 421.917 454.617 420.993 448.219C420.665 445.939 420.346 443.658 420.034 441.377C419.976 440.966 420.158 442.355 420.018 441.261C419.976 440.93 419.932 440.595 419.889 440.271C419.816 439.692 419.73 439.11 419.683 438.529C419.589 436.063 419.934 433.599 420.702 431.253C421.996 426.575 423.587 422.005 424.779 417.291C426.455 410.632 416.183 407.805 414.507 414.459C412.614 421.972 408.659 429.975 408.958 437.843C409.087 441.13 409.78 444.455 410.237 447.706C412.234 461.922 414.394 476.116 416.52 490.32C418.092 500.826 417.665 496.332 419.239 506.837C419.623 508.194 420.526 509.345 421.753 510.042C422.979 510.738 424.431 510.923 425.793 510.557C427.136 510.151 428.271 509.245 428.963 508.025C429.656 506.805 429.853 505.366 429.513 504.005L429.52 504.003Z" fill="#211715"/>
<path d="M501.828 255.872C501.548 260.752 500.639 265.575 499.123 270.221C498.595 271.984 498.013 273.73 497.425 275.473C497.218 276.074 497.019 276.68 496.808 277.279C496.666 277.681 496.007 279.139 496.697 277.601C494.557 282.256 492.097 286.757 489.335 291.071C481.272 304.285 471.117 316.103 459.265 326.061C452.719 331.617 445.114 335.788 436.911 338.322C430.33 340.202 433.127 350.484 439.743 348.593C456.746 343.737 470.909 331.503 482.286 318.38C491.654 307.997 499.492 296.33 505.561 283.731C509.628 274.973 511.978 265.516 512.482 255.872C512.704 249.014 502.05 249.023 501.828 255.872Z" fill="#211715"/>
<path d="M275.037 256.021C281.383 290.019 299.527 322.665 329.943 340.685C338.05 345.572 347.021 348.856 356.368 350.358C357.728 350.689 359.164 350.489 360.382 349.798C361.599 349.106 362.507 347.976 362.92 346.638C363.285 345.276 363.099 343.826 362.403 342.6C361.707 341.374 360.556 340.471 359.2 340.086C326.749 335.154 301.909 305.753 291.404 276.221C288.771 268.715 286.734 261.014 285.309 253.189C284.923 251.834 284.02 250.684 282.794 249.989C281.569 249.293 280.119 249.106 278.757 249.469C277.411 249.87 276.273 250.776 275.579 251.997C274.886 253.218 274.692 254.66 275.037 256.021Z" fill="#211715"/>
<path d="M517.911 198.319C520.356 196.319 523.482 195.348 526.63 195.612C529.778 195.875 532.7 197.352 534.779 199.731C537.178 202.767 537.402 207.111 537.562 210.81C537.779 215.096 537.556 219.392 536.896 223.632C535.57 232.182 532.552 240.381 528.018 247.749C524.605 253.176 518.954 260.516 511.752 258.536C505.133 256.714 502.308 266.988 508.919 268.808C527.445 273.912 539.595 252.015 544.431 237.497C547.348 228.747 548.621 219.533 548.184 210.32C547.74 201.409 545.363 192.93 537.249 188.087C533.049 185.668 528.195 184.627 523.372 185.112C518.55 185.596 514 187.58 510.364 190.786C509.376 191.791 508.822 193.144 508.822 194.553C508.822 195.962 509.376 197.315 510.364 198.319C511.377 199.293 512.726 199.837 514.131 199.837C515.535 199.837 516.885 199.293 517.897 198.319H517.911Z" fill="#211715"/>
<path d="M278.906 190.786C275.59 187.868 271.51 185.958 267.146 185.28C262.782 184.602 258.314 185.185 254.27 186.96C245.754 190.733 242.178 198.583 241.301 207.419C239.526 225.397 244.919 245.496 256.667 259.393C262.955 266.832 272.026 272.807 282.084 270.468C288.758 268.914 285.933 258.64 279.252 260.194C272.254 261.823 265.445 254.057 262.005 248.901C257.222 241.537 254.005 233.267 252.554 224.607C251.83 220.377 251.538 216.085 251.684 211.796C251.788 208.072 251.877 203.584 254.057 200.392C255.035 199.09 256.267 197.999 257.679 197.185C259.091 196.372 260.652 195.852 262.27 195.659C263.888 195.465 265.528 195.601 267.092 196.058C268.655 196.515 270.11 197.284 271.369 198.319C272.384 199.286 273.733 199.825 275.135 199.825C276.537 199.825 277.886 199.286 278.902 198.319C279.889 197.314 280.443 195.962 280.443 194.553C280.443 193.144 279.889 191.791 278.902 190.786H278.906Z" fill="#211715"/>
<path d="M379.448 199.853C379.448 200.139 379.495 200.423 379.484 200.71L389.946 199.294C389.646 197.018 388.875 194.829 387.684 192.867C386.493 190.904 384.907 189.211 383.026 187.894C379.24 185.499 375.07 183.772 370.699 182.789C361.346 180.51 351.697 179.696 342.094 180.377C332.382 180.609 322.774 182.439 313.656 185.795C309.257 187.371 305.612 190.545 303.447 194.686C301.697 198.878 300.922 203.414 301.181 207.95C301.082 216.38 303.341 224.67 307.704 231.884C312.234 238.685 319.877 242.351 327.441 244.791C334.63 246.974 342.171 247.755 349.654 247.092C357.747 246.814 365.726 245.095 373.216 242.014C389.775 234.661 392.303 214.295 389.906 198.426C389.523 197.069 388.62 195.917 387.394 195.221C386.168 194.525 384.716 194.34 383.355 194.706C382.012 195.111 380.876 196.018 380.183 197.237C379.491 198.457 379.294 199.897 379.635 201.258C381.084 210.859 380.396 224.227 371.867 230.597C367.483 233.866 361.024 235.287 355.691 235.986C349.917 236.858 344.057 237.007 338.246 236.43C331.873 235.667 325.768 233.418 320.423 229.862C315.556 226.604 313.645 220.583 312.562 215.083C311.993 212.104 311.755 209.072 311.852 206.041C311.934 203.002 312.074 199.416 314.615 197.334C317.078 195.672 319.865 194.549 322.792 194.038C326.95 192.914 331.185 192.093 335.463 191.581C344.308 190.415 353.273 190.496 362.096 191.821C366.303 192.438 370.418 193.573 374.346 195.201C375.747 195.713 377.031 196.503 378.119 197.525C379.038 198.887 379.575 200.472 379.672 202.112C380.782 208.258 389.882 206.436 390.137 200.696C390.137 200.41 390.091 200.126 390.102 199.84C390.355 192.997 379.701 193.006 379.448 199.853Z" fill="#211715"/>
<path d="M405.953 199.853C405.953 200.139 405.907 200.423 405.918 200.71C405.934 201.99 406.408 203.223 407.256 204.183C408.104 205.143 409.268 205.767 410.537 205.941C411.809 206.126 413.104 205.84 414.181 205.138C415.257 204.435 416.04 203.364 416.383 202.126C416.425 200.725 416.87 199.366 417.666 198.213C418.462 197.06 419.574 196.161 420.868 195.625C424.116 194.129 427.538 193.043 431.053 192.391C438.765 190.9 446.642 190.452 454.473 191.059C462.498 191.357 470.435 192.843 478.024 195.467C479.358 195.836 480.575 196.539 481.56 197.511C482.545 198.482 483.267 199.688 483.655 201.016C484.33 204.21 484.48 207.493 484.099 210.735C483.675 216.37 482.181 223.206 478.353 227.603C474.358 232.182 467.948 234.088 462.415 235.504C450.864 237.58 438.972 236.609 427.911 232.688C416.147 227.729 414.762 212.269 416.425 201.262C416.756 199.902 416.555 198.466 415.864 197.249C415.173 196.031 414.043 195.123 412.705 194.71C411.343 194.345 409.893 194.531 408.667 195.227C407.441 195.923 406.538 197.074 406.153 198.43C403.958 212.954 405.629 230.342 418.542 239.593C424.646 243.963 433.038 245.82 440.38 246.644C447.73 247.673 455.194 247.588 462.519 246.391C470.709 245.018 478.391 241.506 484.789 236.212C490.693 230.932 493.268 222.183 494.315 214.603C495.476 206.209 495.671 195.56 488.671 189.541C484.977 186.688 480.682 184.715 476.111 183.77C471.184 182.493 466.174 181.565 461.116 180.994C450.33 179.595 439.389 179.939 428.712 182.013C423.716 182.915 418.894 184.599 414.423 187.004C412.184 188.273 410.269 190.043 408.828 192.175C407.386 194.307 406.457 196.743 406.113 199.293L416.576 200.71C416.576 200.423 416.622 200.139 416.611 199.853C416.358 193.019 405.703 192.986 405.953 199.853Z" fill="#211715"/>
<path d="M388.821 208.396C389.787 208.156 390.757 207.941 391.736 207.763C392.155 207.688 392.574 207.623 392.994 207.554C394.412 207.332 391.838 207.659 393.265 207.526C395.096 207.341 396.935 207.255 398.776 207.27C399.624 207.286 400.474 207.326 401.319 207.39C401.813 207.427 402.307 207.474 402.8 207.53C403.01 207.552 403.221 207.577 403.432 207.603C402.719 207.506 402.668 207.501 403.279 207.59C405.101 207.898 406.905 208.298 408.686 208.791C410.048 209.166 411.504 208.985 412.733 208.287C413.962 207.59 414.863 206.432 415.239 205.07C415.614 203.707 415.433 202.251 414.735 201.023C414.038 199.794 412.88 198.892 411.518 198.517C403.19 196.163 394.391 196.027 385.994 198.122C384.639 198.509 383.49 199.412 382.795 200.637C382.099 201.863 381.912 203.312 382.274 204.674C382.673 206.02 383.579 207.16 384.8 207.854C386.022 208.548 387.464 208.742 388.826 208.396H388.821Z" fill="#211715"/>
<path d="M307.828 195.729C304.173 194.896 300.428 194.523 296.68 194.619C295.271 194.642 293.923 195.197 292.907 196.173C292.159 196.918 291.65 197.868 291.443 198.903C291.236 199.938 291.342 201.011 291.746 201.986C292.15 202.961 292.835 203.794 293.713 204.379C294.592 204.964 295.624 205.275 296.68 205.273C298.816 205.207 300.955 205.315 303.074 205.597L301.658 205.406C302.778 205.554 303.888 205.754 304.987 206.008C306.374 206.357 307.841 206.165 309.091 205.47C309.695 205.117 310.224 204.649 310.647 204.091C311.07 203.534 311.379 202.899 311.557 202.222C311.734 201.545 311.776 200.84 311.681 200.147C311.586 199.453 311.355 198.786 311.002 198.182C310.297 196.986 309.156 196.111 307.819 195.74L307.828 195.729Z" fill="#211715"/>
<path d="M491.19 206.003C492.296 205.754 493.405 205.554 494.52 205.402L493.103 205.592C495.223 205.31 497.361 205.202 499.498 205.268C500.553 205.271 501.586 204.96 502.464 204.375C503.342 203.79 504.027 202.957 504.431 201.982C504.836 201.007 504.941 199.934 504.735 198.899C504.528 197.864 504.018 196.913 503.271 196.168C502.248 195.202 500.904 194.649 499.498 194.615C495.75 194.518 492.005 194.891 488.349 195.725C487.338 196.003 486.432 196.573 485.744 197.364C485.056 198.155 484.616 199.131 484.48 200.171C484.344 201.21 484.518 202.267 484.98 203.208C485.443 204.149 486.172 204.933 487.078 205.461C488.332 206.142 489.794 206.333 491.181 205.999L491.19 206.003Z" fill="#211715"/>
<path d="M371.836 287.742C378.527 294.301 389.147 296.2 398.125 296.198C407.103 296.196 417.723 294.318 424.426 287.764C429.336 282.961 421.8 275.431 416.893 280.229C416.671 280.451 415.562 281.388 416.227 280.864C416.847 280.373 415.408 281.408 415.078 281.61C414.494 281.969 413.892 282.3 413.28 282.606C412.869 282.813 412.452 283.01 412.028 283.194C412.752 282.879 412.013 283.194 411.673 283.314C407.325 284.841 402.742 285.592 398.134 285.534C393.607 285.608 389.103 284.88 384.831 283.381C384.771 283.358 383.228 282.715 384.231 283.159C383.879 283.011 383.53 282.847 383.184 282.668C382.502 282.333 381.834 281.971 381.186 281.572C380.689 281.266 380.223 280.924 379.744 280.595C381.104 281.523 379.706 280.515 379.373 280.189C374.472 275.386 366.944 282.915 371.84 287.722L371.836 287.742Z" fill="#211715"/>
<path d="M395.413 238.217C396.468 242.034 397.313 245.907 397.943 249.818L397.752 248.402C397.828 248.932 397.843 249.47 397.797 250.004L397.985 248.588C397.95 248.833 397.892 249.074 397.81 249.307L398.347 248.036C398.276 248.197 398.191 248.351 398.092 248.497L398.924 247.421C398.813 247.559 398.686 247.684 398.547 247.794L399.623 246.961C399.328 247.144 399.021 247.306 398.705 247.447L399.978 246.91C399.48 247.12 398.959 247.269 398.425 247.354L399.841 247.163C399.358 247.22 398.87 247.22 398.387 247.163L399.803 247.352C399.255 247.276 398.716 247.143 398.167 247.068C396.779 246.745 395.322 246.936 394.064 247.605C393.459 247.958 392.931 248.426 392.508 248.984C392.085 249.541 391.775 250.177 391.598 250.853C391.421 251.53 391.378 252.235 391.473 252.929C391.568 253.622 391.799 254.29 392.153 254.894C392.491 255.494 392.947 256.021 393.494 256.44C394.041 256.86 394.667 257.164 395.335 257.335C396.529 257.495 397.686 257.801 398.898 257.854C400.697 257.868 402.474 257.45 404.078 256.634C405.083 256.185 405.974 255.515 406.686 254.675C407.398 253.835 407.911 252.845 408.188 251.78C408.551 250.03 408.532 248.223 408.133 246.482C407.503 242.744 406.641 239.04 405.691 235.384C405.316 234.022 404.414 232.865 403.186 232.167C401.957 231.469 400.501 231.288 399.138 231.664C397.776 232.039 396.619 232.94 395.921 234.169C395.223 235.398 395.042 236.854 395.417 238.217H395.413Z" fill="#211715"/>
<path d="M336.149 206.056C334.327 211.962 335.505 225.554 346.698 226.717C361.491 226.637 362.288 210.204 357.311 202.476C353.236 196.148 341.249 193.512 336.149 206.056Z" fill="#211715"/>
<path d="M458.08 206.118C459.896 212.027 458.704 225.619 447.509 226.76C432.716 226.664 431.937 210.231 436.92 202.507C441.001 196.202 452.991 193.567 458.08 206.118Z" fill="#211715"/>
<path d="M600.618 760.114C610.094 757.701 615.518 756.543 624.133 751.58C629.931 748.239 635.164 744.04 640.716 740.325C646.129 736.703 651.667 733.271 657.006 729.536C668.032 721.828 678.361 712.781 683.536 700.043C689.64 685.013 686.903 667.973 684.781 652.397C682.655 636.161 678.947 620.172 673.709 604.658C668.439 589.328 661.092 574.804 654.195 560.17C647.269 545.479 641.641 530.424 636.143 515.156C630.713 500.103 625.964 484.772 620.214 469.841C615.027 456.354 608.505 443.106 598.264 432.688C587.335 421.57 572.792 414.667 559.334 407.177C553.5 405.5 506.086 386.537 503.027 384.902C497.375 381.879 492.34 390.475 498 393.5C504.594 397.027 558.199 418.124 564.739 421.744C571.098 425.025 577.247 428.698 583.15 432.741C594.39 440.923 601.909 452.476 607.524 465.01C613.576 478.516 617.691 492.905 622.617 506.838C628.001 522.058 633.215 537.433 639.679 552.233C645.916 566.517 653.18 580.331 659.255 594.688C665.095 608.716 669.49 623.302 672.375 638.221C673.939 646.073 675.15 653.984 676.008 661.954C677.099 669.468 677.452 677.07 677.062 684.652C675.867 698.097 668.279 708.187 658.079 716.398C652.712 720.535 647.14 724.398 641.382 727.971C635.157 732.013 629.246 736.479 623.046 740.527C620.687 742.104 618.228 743.526 615.685 744.784C613.834 745.653 611.906 746.347 609.927 746.859C604.669 748.295 603.257 749.142 597.975 750.482C591.767 752.063 594.398 761.67 600.622 760.085L600.618 760.114Z" fill="#211715"/>
<path d="M202.928 750.511C193.925 748.218 188.065 747.22 180.511 742.817C174.825 739.498 169.673 735.381 164.21 731.725C159.118 728.318 153.916 725.085 148.872 721.597C139.048 714.815 128.976 706.554 125.011 694.854C122.876 688.016 122.136 680.819 122.832 673.69C123.401 665.679 124.258 657.682 125.488 649.745C127.805 634.108 131.67 618.74 137.027 603.867C142.237 589.706 149.157 576.248 155.535 562.597C162.291 548.137 167.793 533.277 173.207 518.278C178.506 503.598 183.202 488.685 188.7 474.082C194.07 459.819 201.131 445.895 212.879 435.825C219.029 430.834 225.708 426.534 232.798 423.004C240.166 419.089 247.322 414.771 254.686 410.835L296 395L294 383L249.659 402.234C242.955 405.82 236.431 409.725 229.756 413.36C223.118 416.749 216.738 420.622 210.667 424.946C198.961 434.034 189.77 445.961 183.965 459.597C177.591 473.717 173.176 488.646 168.032 503.239C162.575 518.695 157.357 534.362 150.688 549.357C144.115 564.133 136.649 578.495 130.47 593.445C124.327 608.561 119.817 624.29 117.018 640.365C115.554 648.486 114.446 656.676 113.632 664.886C112.558 672.934 112.488 681.083 113.425 689.148C115.522 703.295 123.851 714.669 134.773 723.461C145.019 731.717 156.494 738.319 167.188 745.961C172.005 749.576 177.237 752.602 182.774 754.972C186.751 756.413 187.848 757.499 192.016 758.217C194.78 758.794 197.531 759.421 200.268 760.116C206.482 761.699 209.134 752.096 202.916 750.513L202.928 750.511Z" fill="#211715"/>
<path d="M299.736 623.478L296.567 617.337C287.467 602.182 282.309 575.941 280.402 562.318C278.08 545.734 284.175 509.983 287.476 496.526C290.505 501.915 303.842 532.772 307.553 541.482C314.604 558.032 326.698 580.544 321.571 598.815C317.698 612.616 311.435 614.396 303.638 618.515C295.317 622.91 287.64 620.424 279.825 624.268C274.041 627.116 272.927 632.578 273.675 637.951C274.649 644.958 280.637 652.582 288.492 650.793C292.074 649.976 294.951 647.408 298.145 645.6C302.386 643.198 307.642 641.116 312.058 639.057C322.159 634.342 331.648 629.222 337.82 619.694C344.478 609.424 348.414 597.843 347.08 585.68C342.534 544.26 314.274 509.215 301.618 472.027C300.508 453.022 307.582 408.772 318.233 385.994C318.233 385.994 319.203 384.884 320.626 383.217C319.862 376.887 319.259 370.473 318.817 363.974C305.38 370.011 288.785 390.36 283.771 418.989C281.001 434.793 277.31 451.109 274.005 469.839C261.61 500.69 257.093 542.713 258.469 563.21C259.801 583.137 265.316 608.488 275.781 624.819L278.771 631.615L299.736 623.478Z" fill="white"/>
<path d="M330.68 646.721C330.559 644.874 329.969 643.09 328.965 641.536C327.961 639.982 326.576 638.711 324.943 637.843L319.591 635.312C317.15 636.629 314.624 637.852 312.058 639.05C308.805 640.568 305.098 642.097 301.676 643.755C302.968 646.945 304.646 649.964 306.674 652.744C308.58 655.289 311.363 657.035 314.484 657.643C316.462 657.856 318.462 657.67 320.366 657.094C324.361 656.042 328.467 653.947 330.187 650.183C330.642 649.089 330.811 647.898 330.68 646.721Z" fill="#A0A0A0"/>
<path d="M273.488 635.958C273.19 633.592 273.642 631.192 274.778 629.095C275.915 626.998 277.68 625.31 279.825 624.268C284.088 622.52 288.631 621.553 293.237 621.414C296.754 628.878 298.646 637.004 298.786 645.253C298.564 645.36 298.342 645.475 298.136 645.6C294.942 647.408 292.065 649.976 288.483 650.793C280.628 652.582 274.64 644.958 273.666 637.951C273.581 637.285 273.517 636.62 273.488 635.958Z" fill="#A0A0A0"/>
<path d="M301.165 614.647C292.536 600.043 288.938 582.16 286.25 565.596C286.119 564.784 285.991 563.97 285.866 563.155C285.842 562.984 285.536 560.813 285.662 561.81C285.44 560.132 285.334 558.441 285.272 556.749C285.136 553.058 285.247 549.361 285.46 545.676C285.937 537.393 286.938 529.141 288.21 520.947C289.406 513.239 290.767 505.526 292.611 497.942L282.875 499.214C288.625 509.579 292.915 520.954 297.63 531.811C303.582 545.521 310.527 559.151 314.797 573.486C317.259 581.752 318.635 590.401 316.02 598.789C313.825 605.831 310.516 608.998 304.377 612.152C300.828 614.163 296.94 615.507 292.907 616.116C287.654 616.378 282.48 617.503 277.592 619.445C268.905 623.573 266.39 633.856 269.314 642.51C272.237 651.164 280.373 658.137 289.912 655.913C294.88 654.757 298.848 651.117 303.318 648.864C307.844 646.585 312.565 644.714 317.13 642.515C325.449 638.508 333.698 633.637 339.533 626.312C346 618.227 350.288 608.62 351.987 598.407C353.541 588.262 351.765 577.988 349.261 568.118C346.723 558.59 343.416 549.283 339.374 540.29C331.685 522.636 322.017 505.941 313.978 488.452C312.081 484.328 310.29 480.16 308.676 475.914C307.976 474.342 307.383 472.725 306.9 471.073C306.752 469.609 306.732 468.135 306.84 466.667C306.983 459.569 307.539 452.485 308.507 445.451C310.45 429.263 314.035 413.314 319.205 397.85C320.26 394.73 321.471 391.664 322.834 388.666C323.507 387.437 323.684 385.997 323.328 384.642C322.973 383.286 322.112 382.118 320.923 381.377C319.7 380.676 318.251 380.484 316.888 380.841C315.524 381.199 314.356 382.077 313.634 383.288C307.02 397.577 303.283 413.169 300.457 428.597C298.995 436.587 297.825 444.628 297.028 452.705C296.276 458.876 296.018 465.098 296.258 471.311C296.527 475.616 298.864 480.08 300.506 484.041C302.384 488.566 304.375 493.043 306.479 497.472C310.498 505.934 314.844 514.235 319.092 522.585C327.55 539.209 335.738 556.177 339.831 574.483C341.886 583.667 342.967 592.785 340.31 601.965C337.904 610.988 332.804 619.063 325.69 625.114C318.661 630.731 310.017 634.107 301.9 637.789C299.72 638.777 297.541 639.787 295.463 640.985C293.335 642.202 291.397 643.788 289.196 644.872C287.926 645.59 286.433 645.805 285.012 645.475C283.591 645.144 282.346 644.291 281.525 643.085C279.542 640.602 278.575 637.458 278.82 634.289C279.095 630.68 281.456 628.985 284.848 628.017C289.287 626.752 293.967 626.878 298.464 625.946C302.695 624.848 306.753 623.167 310.52 620.95C316.704 617.961 321.628 612.877 324.419 606.601C328.053 597.951 329 588.408 327.138 579.213C324.326 563.221 316.307 548.386 309.937 533.594C304.887 521.868 299.862 510.111 294.429 498.559C293.679 496.966 292.935 495.363 292.081 493.823C291.536 492.94 290.748 492.234 289.812 491.788C288.875 491.343 287.83 491.177 286.801 491.311C285.773 491.446 284.805 491.874 284.015 492.545C283.224 493.216 282.644 494.102 282.344 495.094C278.597 510.745 276.143 526.677 275.006 542.729C274.334 550.278 274.504 557.879 275.515 565.39C276.768 573.899 278.485 582.333 280.659 590.654C283.067 600.912 286.876 610.79 291.979 620.009C295.463 625.906 304.676 620.553 301.176 614.631L301.165 614.647Z" fill="#211715"/>
<path d="M259.907 569.518C266.502 569.123 273.081 568.55 279.645 567.8C281.05 567.757 282.391 567.205 283.418 566.247C284.409 565.24 284.966 563.886 284.972 562.473C284.854 559.859 282.61 556.809 279.645 557.147C273.083 557.895 266.504 558.468 259.907 558.865C258.495 558.865 257.14 559.426 256.141 560.425C255.142 561.424 254.581 562.779 254.581 564.191C254.581 565.604 255.142 566.959 256.141 567.958C257.14 568.957 258.495 569.518 259.907 569.518Z" fill="#211715"/>
<path d="M317.904 561.004C318.18 560.884 318.455 560.769 318.73 560.651L317.456 561.188C322.33 559.147 327.368 557.52 332.515 556.326C333.871 555.94 335.021 555.037 335.717 553.811C336.412 552.586 336.599 551.135 336.235 549.774C335.834 548.428 334.928 547.289 333.707 546.596C332.486 545.903 331.044 545.708 329.683 546.054C323.804 547.453 318.062 549.378 312.527 551.804C311.328 552.505 310.452 553.648 310.085 554.987C309.899 555.662 309.847 556.367 309.933 557.061C310.019 557.756 310.241 558.426 310.587 559.035C310.932 559.644 311.394 560.178 311.947 560.608C312.499 561.038 313.13 561.355 313.805 561.541L315.221 561.73C316.166 561.732 317.094 561.482 317.909 561.004H317.904Z" fill="#211715"/>
<path d="M289.204 625.314C291.128 629.981 292.451 634.875 293.142 639.876L292.951 638.46C293.152 639.97 293.3 641.487 293.395 643.01C293.395 644.422 293.956 645.777 294.955 646.776C295.954 647.775 297.309 648.336 298.722 648.336C300.134 648.336 301.489 647.775 302.488 646.776C303.487 645.777 304.048 644.422 304.048 643.01C303.675 635.964 302.133 629.03 299.485 622.49C299.07 621.176 298.206 620.049 297.044 619.308C296.44 618.954 295.772 618.724 295.079 618.628C294.385 618.533 293.68 618.576 293.003 618.753C292.326 618.931 291.691 619.24 291.134 619.663C290.576 620.086 290.108 620.615 289.755 621.219C289.386 621.828 289.148 622.508 289.055 623.214C288.963 623.921 289.018 624.639 289.218 625.323L289.204 625.314Z" fill="#211715"/>
<path d="M322.701 641.682C323.096 641.849 323.447 642.06 323.824 642.262C324.623 642.685 323.38 641.742 323.957 642.368C324.266 642.699 324.59 643.007 324.885 643.351C324.219 642.566 324.871 643.373 325.005 643.584C325.258 643.986 325.464 644.406 325.688 644.825C326.154 645.713 325.535 644.197 325.781 645.074C325.908 645.517 326.063 645.961 326.168 646.419C326.288 646.949 326.265 647.322 326.228 646.578C326.25 647.009 326.248 647.442 326.265 647.875C326.305 648.824 326.521 647.093 326.265 647.91C325.877 649.177 326.731 647.38 326.17 648.318C325.961 648.671 325.77 649.026 325.542 649.368C326.021 648.656 325.065 649.868 324.92 650.005C324.776 650.143 323.968 650.818 324.567 650.36C323.727 650.977 322.825 651.504 321.875 651.934C321.59 652.063 321.621 652.054 321.968 651.907C321.709 652.012 321.445 652.112 321.181 652.205C320.719 652.371 320.253 652.518 319.782 652.649C319.265 652.797 318.744 652.933 318.229 653.05C317.905 653.124 317.578 653.188 317.252 653.243C317.532 653.219 317.514 653.221 317.201 653.243C316.627 653.292 316.05 653.308 315.474 653.292C314.893 653.246 314.808 653.241 315.252 653.292C315.044 653.252 314.835 653.206 314.631 653.148C314.427 653.09 313.157 652.606 313.896 652.944C313.444 652.733 313.007 652.492 312.587 652.223C312.405 652.109 312.225 652.001 312.05 651.867C312.369 652.136 312.329 652.105 311.925 651.77C311.521 651.435 311.175 651.104 310.816 650.735C310.195 650.127 309.654 649.443 309.204 648.7C307.942 646.654 306.83 644.519 305.875 642.313C305.277 641.3 304.304 640.564 303.166 640.266C302.029 639.968 300.82 640.132 299.802 640.721C298.81 641.337 298.092 642.31 297.795 643.44C297.499 644.57 297.647 645.77 298.209 646.794C299.855 651.112 302.45 655.005 305.802 658.186C307.622 659.764 309.75 660.945 312.052 661.655C314.689 662.315 317.446 662.336 320.093 661.715C324.451 660.987 328.48 658.936 331.634 655.842C333.112 654.304 334.173 652.414 334.717 650.352C335.261 648.289 335.269 646.122 334.742 644.055C334.316 641.923 333.417 639.913 332.111 638.175C330.805 636.436 329.125 635.014 327.195 634.012C326.171 633.451 324.972 633.303 323.842 633.599C322.713 633.895 321.74 634.612 321.123 635.603C320.541 636.623 320.382 637.83 320.679 638.965C320.977 640.101 321.707 641.075 322.714 641.678L322.701 641.682Z" fill="#211715"/>
<path d="M319.036 358.168C304.37 363.741 293.706 377.78 287.098 391.478C282.766 400.787 279.726 410.644 278.063 420.775C276.087 431.651 273.808 442.444 271.695 453.28C270.603 458.879 270.141 465.072 268.097 470.385C266.384 474.824 264.875 479.356 263.525 483.924C260.697 493.607 258.458 503.452 256.82 513.405C254.037 529.972 251.988 547.195 253.2 564.009C254.754 585.627 259.463 608.949 271.178 627.506C274.829 633.288 284.051 627.95 280.375 622.129C270.645 606.725 266.275 587.685 264.36 569.749C262.976 554.189 263.531 538.518 266.013 523.096C267.361 513.601 269.213 504.186 271.562 494.888C272.725 490.321 274.023 485.788 275.492 481.305C277.291 476.633 278.766 471.844 279.907 466.969C281.876 456.194 284.104 445.467 286.217 434.72C288.168 424.802 289.522 414.73 292.875 405.152C295.862 396.373 300.396 388.199 306.263 381.018C308.75 378.011 311.526 375.255 314.551 372.79C315.792 371.846 317.086 370.973 318.426 370.176C319.092 369.781 319.78 369.406 320.477 369.066C320.774 368.917 321.074 368.775 321.376 368.638C322.423 368.158 320.73 368.877 321.873 368.445C323.213 368.036 324.346 367.128 325.038 365.91C325.73 364.691 325.929 363.253 325.593 361.893C325.209 360.536 324.306 359.385 323.08 358.688C321.854 357.992 320.403 357.806 319.041 358.171L319.036 358.168Z" fill="#211715"/>
<path d="M520.159 549.803C521.466 538.368 517.857 525.763 507.561 520.37C517.136 468.283 513.847 442.706 507.382 413.367C503.577 396.101 491.299 372.972 475.807 364.074C475.141 369.239 474.129 375.576 472.855 382.54C476.433 386.116 481.858 398.569 483.46 404.489C494.711 446.193 495.854 472.809 488.951 517.904C476.582 520.63 471.417 532.453 470.323 537.032C467.402 549.336 468.388 565.31 479.492 573.247C482.026 575.044 484.921 576.267 487.977 576.829C505.51 580.158 516.923 567.336 519.715 552.695C519.899 551.745 520.048 550.777 520.159 549.803Z" fill="white"/>
<path d="M489.392 571.695C476.844 569.059 473.519 556.354 474.391 545.062C474.566 542.666 474.964 540.292 475.581 537.97C475.705 537.509 475.849 537.052 476.005 536.599C476.111 536.284 476.227 535.977 476.344 535.667C476.628 534.865 475.856 536.617 476.524 535.243C477.779 532.234 479.672 529.534 482.073 527.328C483.307 526.152 484.719 525.178 486.256 524.443C488.187 523.54 490.255 522.965 492.375 522.743C497.709 522.164 503.073 523.529 507.481 526.587C515.229 532.633 516.337 544.538 514.111 553.398C511.214 564.924 501.868 573.893 489.388 571.7C488.027 571.364 486.589 571.563 485.37 572.255C484.152 572.948 483.245 574.081 482.836 575.422C482.473 576.784 482.66 578.234 483.355 579.459C484.051 580.685 485.201 581.588 486.556 581.974C494.117 583.574 502.002 582.346 508.717 578.523C514.832 574.671 519.581 568.995 522.292 562.296C527.765 549.403 527.066 532.977 517.868 521.926C509.01 511.286 491.106 508.904 479.423 516.062C475.38 518.672 471.947 522.122 469.356 526.177C466.765 530.232 465.078 534.797 464.408 539.562C462.807 547.815 463.459 556.348 466.294 564.262C467.925 568.671 470.634 572.601 474.173 575.695C477.712 578.788 481.969 580.947 486.556 581.974C493.25 583.374 496.109 573.107 489.392 571.695Z" fill="#211715"/>
<path d="M492.495 556.454C491.56 556.281 490.674 555.907 489.898 555.358C486.498 552.927 486.196 548.033 487.091 544.26C487.328 543.203 487.785 542.206 488.432 541.336C489.079 540.467 489.901 539.743 490.846 539.211C491.791 538.68 492.838 538.354 493.917 538.253C494.996 538.152 496.085 538.28 497.112 538.627C501.633 539.866 503.004 544.895 502.217 549.059C501.355 553.538 497.86 557.471 492.495 556.454Z" fill="#211715"/>
<path d="M512.928 520.523C517.367 495.834 520.383 470.623 518.053 445.534C516.12 424.702 512.244 403.186 501.728 384.851C495.054 373.216 485.932 362.25 473.286 357.019C471.924 356.651 470.472 356.836 469.246 357.532C468.019 358.229 467.117 359.381 466.734 360.738C466.394 362.099 466.59 363.539 467.283 364.759C467.975 365.979 469.111 366.885 470.454 367.29C479.665 371.101 486.696 380.421 491.703 388.819C497.062 397.915 500.873 407.837 502.98 418.181C507.065 436.429 508.749 455.132 507.99 473.816C507.184 488.545 505.405 503.204 502.663 517.698C502.326 519.058 502.525 520.496 503.217 521.715C503.909 522.934 505.042 523.841 506.383 524.25C507.744 524.613 509.194 524.426 510.42 523.73C511.645 523.035 512.548 521.885 512.935 520.53L512.928 520.523Z" fill="#211715"/>
<path d="M469.089 386.307C469.93 387.195 469.311 386.429 469.795 387.128C470.198 387.71 470.578 388.309 470.946 388.915C471.932 390.542 472.809 392.244 473.641 393.944C475.157 397.037 476.473 400.225 477.578 403.488C485.284 428.796 488.671 455.222 487.597 481.656C487.013 492.853 485.688 503.997 484.03 515.081C483.699 516.442 483.9 517.877 484.591 519.095C485.282 520.313 486.412 521.221 487.75 521.635C489.112 522 490.563 521.814 491.789 521.117C493.015 520.421 493.918 519.27 494.302 517.913C497.263 498.129 499.376 478.149 498.246 458.125C497.181 439.012 493.815 420.098 488.218 401.792C486.838 397.5 485.151 393.312 483.171 389.261C481.549 385.447 479.34 381.911 476.624 378.781C471.89 373.802 464.363 381.344 469.078 386.313L469.089 386.307Z" fill="#211715"/>
</g>
<defs>
<clipPath id="clip0_2069_3496">
<rect width="800" height="800" fill="white"/>
</clipPath>
</defs>
</svg>
